<mxfile host="app.diagrams.net" modified="2024-05-29T19:17:25.860Z" agent="Mozilla/5.0 (Windows NT 10.0; Win64; x64) AppleWebKit/537.36 (KHTML, like Gecko) Chrome/125.0.0.0 Safari/537.36 Edg/125.0.0.0" etag="DQzOO36rqctaR0tkNFKM" version="24.4.10" type="github">
  <diagram name="PÃ¡gina-1" id="2OZ_F0GOnzpVDjoOHze3">
    <mxGraphModel dx="1619" dy="1281" grid="0" gridSize="10" guides="1" tooltips="1" connect="1" arrows="1" fold="1" page="0" pageScale="1" pageWidth="827" pageHeight="1169" math="0" shadow="0">
      <root>
        <mxCell id="0" />
        <mxCell id="1" parent="0" />
        <mxCell id="komAiraVEAq9OXNVHG3H-1" value="0" style="swimlane;whiteSpace=wrap;html=1;startSize=83;" vertex="1" parent="1">
          <mxGeometry x="547" y="78" width="244" height="200" as="geometry" />
        </mxCell>
        <mxCell id="komAiraVEAq9OXNVHG3H-2" value="SISTEMA DE GESTION DE&lt;div&gt;INVENTARIO&lt;/div&gt;" style="text;html=1;align=center;verticalAlign=middle;resizable=0;points=[];autosize=1;strokeColor=none;fillColor=none;fontSize=16;" vertex="1" parent="komAiraVEAq9OXNVHG3H-1">
          <mxGeometry x="14" y="93" width="217" height="50" as="geometry" />
        </mxCell>
        <mxCell id="komAiraVEAq9OXNVHG3H-3" value="CLIENTES" style="whiteSpace=wrap;html=1;align=center;" vertex="1" parent="1">
          <mxGeometry x="310" y="-36" width="100" height="40" as="geometry" />
        </mxCell>
        <mxCell id="komAiraVEAq9OXNVHG3H-4" value="PROVEEDORES" style="whiteSpace=wrap;html=1;align=center;" vertex="1" parent="1">
          <mxGeometry x="321" y="340" width="100" height="40" as="geometry" />
        </mxCell>
        <mxCell id="komAiraVEAq9OXNVHG3H-5" value="BANCOS" style="whiteSpace=wrap;html=1;align=center;" vertex="1" parent="1">
          <mxGeometry x="895" y="-36" width="100" height="40" as="geometry" />
        </mxCell>
        <mxCell id="komAiraVEAq9OXNVHG3H-6" value="SAT" style="whiteSpace=wrap;html=1;align=center;" vertex="1" parent="1">
          <mxGeometry x="895" y="340" width="100" height="40" as="geometry" />
        </mxCell>
        <mxCell id="komAiraVEAq9OXNVHG3H-7" value="" style="edgeStyle=elbowEdgeStyle;elbow=horizontal;endArrow=classic;html=1;curved=0;rounded=0;endSize=8;startSize=8;fontSize=12;" edge="1" parent="1">
          <mxGeometry width="50" height="50" relative="1" as="geometry">
            <mxPoint x="497" y="368" as="sourcePoint" />
            <mxPoint x="547" y="318" as="targetPoint" />
          </mxGeometry>
        </mxCell>
      </root>
    </mxGraphModel>
  </diagram>
</mxfile>
